<svg width="12" height="12" viewBox="0 0 12 12" fill="none" xmlns="http://www.w3.org/2000/svg">
<path d="M9.80236 8.38816C9.41184 7.99764 8.77868 7.99763 8.38815 8.38815C7.99762 8.77868 7.99762 9.41184 8.38814 9.80237L9.80236 8.38816ZM10.2929 11.7071C10.6834 12.0976 11.3165 12.0976 11.7071 11.7071C12.0976 11.3166 12.0976 10.6834 11.7071 10.2929L10.2929 11.7071ZM8.38814 9.80237L10.2929 11.7071L11.7071 10.2929L9.80236 8.38816L8.38814 9.80237ZM5.28571 8.57141C3.47106 8.57141 2 7.10035 2 5.28571H0C0 8.20492 2.36649 10.5714 5.28571 10.5714V8.57141ZM8.57141 5.28571C8.57141 7.10035 7.10035 8.57141 5.28571 8.57141V10.5714C8.20492 10.5714 10.5714 8.20492 10.5714 5.28571H8.57141ZM5.28571 2C7.10035 2 8.57141 3.47106 8.57141 5.28571H10.5714C10.5714 2.36649 8.20492 0 5.28571 0V2ZM5.28571 0C2.36649 0 0 2.36649 0 5.28571H2C2 3.47106 3.47106 2 5.28571 2V0Z" fill="#999999"/>
</svg>
